<mxfile host="app.diagrams.net" agent="Mozilla/5.0 (Windows NT 10.0; Win64; x64) AppleWebKit/537.36 (KHTML, like Gecko) Chrome/131.0.0.0 Safari/537.36 Edg/131.0.0.0" version="24.9.1">
  <diagram name="Page-1" id="h3Q4yjTNShIfwBBx21Gm">
    <mxGraphModel dx="3967" dy="1119" grid="1" gridSize="10" guides="1" tooltips="1" connect="1" arrows="1" fold="1" page="1" pageScale="1" pageWidth="827" pageHeight="1169" math="0" shadow="0">
      <root>
        <mxCell id="0" />
        <mxCell id="1" parent="0" />
        <mxCell id="wGV_q_7Ccg4vwoB7AuN0-1" value="&lt;p style=&quot;margin-top: 0pt; margin-bottom: 0pt; margin-left: 0in; direction: ltr; unicode-bidi: embed; word-break: normal;&quot;&gt;&lt;span style=&quot;font-size: 18pt; font-family: Aptos;&quot;&gt;CVCS_BI_LandTaxMinDataset_BP&lt;/span&gt;&lt;/p&gt;" style="rounded=0;whiteSpace=wrap;html=1;" vertex="1" parent="1">
          <mxGeometry x="194" y="90" width="440" height="60" as="geometry" />
        </mxCell>
        <mxCell id="wGV_q_7Ccg4vwoB7AuN0-7" style="edgeStyle=orthogonalEdgeStyle;rounded=0;orthogonalLoop=1;jettySize=auto;html=1;entryX=0.5;entryY=1;entryDx=0;entryDy=0;exitX=0.5;exitY=0;exitDx=0;exitDy=0;" edge="1" parent="1" source="wGV_q_7Ccg4vwoB7AuN0-2">
          <mxGeometry relative="1" as="geometry">
            <mxPoint x="8" y="312" as="sourcePoint" />
            <mxPoint x="412" y="140" as="targetPoint" />
            <Array as="points">
              <mxPoint x="-1549" y="220" />
              <mxPoint x="412" y="220" />
            </Array>
          </mxGeometry>
        </mxCell>
        <mxCell id="wGV_q_7Ccg4vwoB7AuN0-2" value="&lt;font style=&quot;font-size: 14px;&quot;&gt;&lt;br&gt;&lt;br&gt;&lt;br&gt;&lt;/font&gt;&lt;p style=&quot;language:en-AU;margin-top:0pt;margin-bottom:0pt;margin-left:0in;&lt;br/&gt;text-align:center;direction:ltr;unicode-bidi:embed;mso-line-break-override:&lt;br/&gt;none;word-break:normal;punctuation-wrap:hanging&quot;&gt;&lt;span style=&quot;color: black;&quot;&gt;&lt;font style=&quot;font-size: 14px;&quot;&gt;&lt;br&gt;&lt;/font&gt;&lt;/span&gt;&lt;/p&gt;&lt;p style=&quot;language:en-AU;margin-top:0pt;margin-bottom:0pt;margin-left:0in;&lt;br/&gt;text-align:center;direction:ltr;unicode-bidi:embed;mso-line-break-override:&lt;br/&gt;none;word-break:normal;punctuation-wrap:hanging&quot;&gt;&lt;span style=&quot;color: black;&quot;&gt;&lt;font style=&quot;font-size: 14px;&quot;&gt;&lt;br&gt;&lt;/font&gt;&lt;/span&gt;&lt;/p&gt;&lt;p style=&quot;language:en-AU;margin-top:0pt;margin-bottom:0pt;margin-left:0in;&lt;br/&gt;text-align:center;direction:ltr;unicode-bidi:embed;mso-line-break-override:&lt;br/&gt;none;word-break:normal;punctuation-wrap:hanging&quot;&gt;&lt;span style=&quot;color: black;&quot;&gt;&lt;font style=&quot;font-size: 14px;&quot;&gt;CVC_LT_COVID_&lt;/font&gt;&lt;/span&gt;&lt;/p&gt;&lt;p style=&quot;language:en-AU;margin-top:0pt;margin-bottom:0pt;margin-left:0in;&lt;br/&gt;text-align:center;direction:ltr;unicode-bidi:embed;mso-line-break-override:&lt;br/&gt;none;word-break:normal;punctuation-wrap:hanging&quot;&gt;&lt;span style=&quot;color: black;&quot;&gt;&lt;font style=&quot;font-size: 14px;&quot;&gt;ConslidatedAnalysis&lt;/font&gt;&lt;/span&gt;&lt;/p&gt;&lt;font style=&quot;&quot;&gt;&lt;font style=&quot;font-size: 14px;&quot;&gt;&lt;br&gt;&lt;br&gt;&lt;br&gt;&lt;br&gt;&lt;/font&gt;&lt;br&gt;&lt;/font&gt;" style="rounded=0;whiteSpace=wrap;html=1;align=center;" vertex="1" parent="1">
          <mxGeometry x="-1629" y="402" width="160" height="80" as="geometry" />
        </mxCell>
        <mxCell id="wGV_q_7Ccg4vwoB7AuN0-8" style="edgeStyle=orthogonalEdgeStyle;rounded=0;orthogonalLoop=1;jettySize=auto;html=1;" edge="1" parent="1" source="wGV_q_7Ccg4vwoB7AuN0-3">
          <mxGeometry relative="1" as="geometry">
            <mxPoint x="410" y="150" as="targetPoint" />
            <Array as="points">
              <mxPoint x="210" y="220" />
              <mxPoint x="411" y="220" />
            </Array>
          </mxGeometry>
        </mxCell>
        <mxCell id="wGV_q_7Ccg4vwoB7AuN0-3" value="&lt;font style=&quot;font-size: 14px;&quot;&gt;&lt;p style=&quot;margin-top: 0pt; margin-bottom: 0pt; margin-left: 0in; direction: ltr; unicode-bidi: embed; word-break: normal;&quot;&gt;&lt;span style=&quot;font-family: Aptos;&quot;&gt;CV_OwnershipCnresp&lt;/span&gt;&lt;/p&gt;&lt;/font&gt;" style="rounded=0;whiteSpace=wrap;html=1;align=center;" vertex="1" parent="1">
          <mxGeometry x="-753" y="402" width="160" height="80" as="geometry" />
        </mxCell>
        <mxCell id="wGV_q_7Ccg4vwoB7AuN0-9" style="edgeStyle=orthogonalEdgeStyle;rounded=0;orthogonalLoop=1;jettySize=auto;html=1;" edge="1" parent="1" source="wGV_q_7Ccg4vwoB7AuN0-4">
          <mxGeometry relative="1" as="geometry">
            <mxPoint x="410" y="140" as="targetPoint" />
          </mxGeometry>
        </mxCell>
        <mxCell id="wGV_q_7Ccg4vwoB7AuN0-4" value="&lt;font style=&quot;font-size: 14px;&quot;&gt;&lt;br&gt;&lt;br&gt;&lt;br&gt;&lt;/font&gt;&lt;p style=&quot;language:en-AU;margin-top:0pt;margin-bottom:0pt;margin-left:0in;&lt;br/&gt;text-align:center;direction:ltr;unicode-bidi:embed;mso-line-break-override:&lt;br/&gt;none;word-break:normal;punctuation-wrap:hanging&quot;&gt;&lt;span style=&quot;color: black;&quot;&gt;&lt;font style=&quot;font-size: 14px;&quot;&gt;&lt;br&gt;&lt;/font&gt;&lt;/span&gt;&lt;/p&gt;&lt;p style=&quot;language:en-AU;margin-top:0pt;margin-bottom:0pt;margin-left:0in;&lt;br/&gt;text-align:center;direction:ltr;unicode-bidi:embed;mso-line-break-override:&lt;br/&gt;none;word-break:normal;punctuation-wrap:hanging&quot;&gt;&lt;span style=&quot;color: black;&quot;&gt;&lt;font style=&quot;font-size: 14px;&quot;&gt;&lt;br&gt;&lt;/font&gt;&lt;/span&gt;&lt;/p&gt;&lt;p style=&quot;margin-top: 0pt; margin-bottom: 0pt; margin-left: 0in; direction: ltr; unicode-bidi: embed; word-break: normal;&quot;&gt;&lt;span style=&quot;font-family: Aptos;&quot;&gt;&lt;font style=&quot;font-size: 14px;&quot;&gt;CV_ContractValues&lt;/font&gt;&lt;/span&gt;&lt;/p&gt;&lt;font style=&quot;&quot;&gt;&lt;font style=&quot;font-size: 14px;&quot;&gt;&lt;br&gt;&lt;br&gt;&lt;br&gt;&lt;br&gt;&lt;/font&gt;&lt;br&gt;&lt;/font&gt;" style="rounded=0;whiteSpace=wrap;html=1;align=center;" vertex="1" parent="1">
          <mxGeometry x="331" y="400" width="160" height="80" as="geometry" />
        </mxCell>
        <mxCell id="wGV_q_7Ccg4vwoB7AuN0-10" style="edgeStyle=orthogonalEdgeStyle;rounded=0;orthogonalLoop=1;jettySize=auto;html=1;" edge="1" parent="1" source="wGV_q_7Ccg4vwoB7AuN0-5">
          <mxGeometry relative="1" as="geometry">
            <mxPoint x="410" y="150" as="targetPoint" />
            <Array as="points">
              <mxPoint x="590" y="220" />
              <mxPoint x="411" y="220" />
            </Array>
          </mxGeometry>
        </mxCell>
        <mxCell id="wGV_q_7Ccg4vwoB7AuN0-5" value="&lt;font style=&quot;font-size: 14px;&quot;&gt;&lt;p style=&quot;margin-top: 0pt; margin-bottom: 0pt; margin-left: 0in; direction: ltr; unicode-bidi: embed; word-break: normal;&quot;&gt;&lt;span style=&quot;font-family: Aptos;&quot;&gt;CV_LtBpOverview&lt;/span&gt;&lt;/p&gt;&lt;/font&gt;" style="rounded=0;whiteSpace=wrap;html=1;align=center;" vertex="1" parent="1">
          <mxGeometry x="1560" y="402" width="160" height="80" as="geometry" />
        </mxCell>
        <mxCell id="wGV_q_7Ccg4vwoB7AuN0-12" style="edgeStyle=orthogonalEdgeStyle;rounded=0;orthogonalLoop=1;jettySize=auto;html=1;exitX=0.5;exitY=0;exitDx=0;exitDy=0;" edge="1" parent="1" source="wGV_q_7Ccg4vwoB7AuN0-6">
          <mxGeometry relative="1" as="geometry">
            <mxPoint x="410" y="150" as="targetPoint" />
            <mxPoint x="1187" y="330" as="sourcePoint" />
            <Array as="points">
              <mxPoint x="1107" y="220" />
              <mxPoint x="411" y="220" />
            </Array>
          </mxGeometry>
        </mxCell>
        <mxCell id="wGV_q_7Ccg4vwoB7AuN0-6" value="&lt;font style=&quot;font-size: 14px;&quot;&gt;&lt;p style=&quot;margin-top: 0pt; margin-bottom: 0pt; margin-left: 0in; direction: ltr; unicode-bidi: embed; word-break: normal;&quot;&gt;&lt;span style=&quot;font-family: Aptos;&quot;&gt;TF_LT_AssessmentReturn&lt;/span&gt;&lt;/p&gt;&lt;/font&gt;" style="rounded=0;whiteSpace=wrap;html=1;align=center;" vertex="1" parent="1">
          <mxGeometry x="3292" y="400" width="160" height="80" as="geometry" />
        </mxCell>
        <mxCell id="wGV_q_7Ccg4vwoB7AuN0-32" style="edgeStyle=orthogonalEdgeStyle;rounded=0;orthogonalLoop=1;jettySize=auto;html=1;exitX=0.5;exitY=0;exitDx=0;exitDy=0;entryX=0.5;entryY=1;entryDx=0;entryDy=0;" edge="1" parent="1" source="wGV_q_7Ccg4vwoB7AuN0-13" target="wGV_q_7Ccg4vwoB7AuN0-2">
          <mxGeometry relative="1" as="geometry" />
        </mxCell>
        <mxCell id="wGV_q_7Ccg4vwoB7AuN0-13" value="&lt;font style=&quot;font-size: 14px;&quot;&gt;&lt;br&gt;&lt;br&gt;&lt;br&gt;&lt;/font&gt;&lt;p style=&quot;language:en-AU;margin-top:0pt;margin-bottom:0pt;margin-left:0in;&lt;br/&gt;text-align:center;direction:ltr;unicode-bidi:embed;mso-line-break-override:&lt;br/&gt;none;word-break:normal;punctuation-wrap:hanging&quot;&gt;&lt;span style=&quot;color: black;&quot;&gt;&lt;font style=&quot;font-size: 14px;&quot;&gt;&lt;br&gt;&lt;/font&gt;&lt;/span&gt;&lt;/p&gt;&lt;p style=&quot;language:en-AU;margin-top:0pt;margin-bottom:0pt;margin-left:0in;&lt;br/&gt;text-align:center;direction:ltr;unicode-bidi:embed;mso-line-break-override:&lt;br/&gt;none;word-break:normal;punctuation-wrap:hanging&quot;&gt;&lt;span style=&quot;color: black;&quot;&gt;&lt;font style=&quot;font-size: 14px;&quot;&gt;&lt;br&gt;&lt;/font&gt;&lt;/span&gt;&lt;/p&gt;&lt;p style=&quot;margin-top: 0pt; margin-bottom: 0pt; margin-left: 0in; direction: ltr; unicode-bidi: embed; word-break: normal;&quot;&gt;&lt;span style=&quot;font-size: 10pt; font-family: Aptos;&quot;&gt;LandTax&lt;/span&gt;&lt;span style=&quot;font-size: 10pt; font-family: Aptos;&quot;&gt;::&lt;/span&gt;&lt;span style=&quot;font-size: 10pt; font-family: Aptos;&quot;&gt;CVC_LT_&lt;/span&gt;&lt;/p&gt;&lt;p style=&quot;margin-top: 0pt; margin-bottom: 0pt; margin-left: 0in; direction: ltr; unicode-bidi: embed; word-break: normal;&quot;&gt;&lt;span style=&quot;font-size: 10pt; font-family: Aptos;&quot;&gt;COVIDContractResults&lt;/span&gt;&lt;/p&gt;&lt;font style=&quot;&quot;&gt;&lt;font style=&quot;font-size: 14px;&quot;&gt;&lt;br&gt;&lt;br&gt;&lt;br&gt;&lt;br&gt;&lt;/font&gt;&lt;br&gt;&lt;/font&gt;" style="rounded=0;whiteSpace=wrap;html=1;align=center;" vertex="1" parent="1">
          <mxGeometry x="-2350" y="840" width="160" height="80" as="geometry" />
        </mxCell>
        <mxCell id="wGV_q_7Ccg4vwoB7AuN0-33" style="edgeStyle=orthogonalEdgeStyle;rounded=0;orthogonalLoop=1;jettySize=auto;html=1;exitX=0.5;exitY=0;exitDx=0;exitDy=0;" edge="1" parent="1" source="wGV_q_7Ccg4vwoB7AuN0-14">
          <mxGeometry relative="1" as="geometry">
            <mxPoint x="-1549.5714285714284" y="480" as="targetPoint" />
          </mxGeometry>
        </mxCell>
        <mxCell id="wGV_q_7Ccg4vwoB7AuN0-14" value="&lt;font style=&quot;font-size: 14px;&quot;&gt;&lt;p style=&quot;margin-top: 0pt; margin-bottom: 0pt; margin-left: 0in; direction: ltr; unicode-bidi: embed; word-break: normal;&quot;&gt;&lt;span style=&quot;font-family: Aptos;&quot;&gt;LandTax&lt;/span&gt;&lt;span style=&quot;font-family: Aptos;&quot;&gt;::&lt;/span&gt;&lt;span style=&quot;font-family: Aptos;&quot;&gt;CVC_LT_COVID_&lt;/span&gt;&lt;/p&gt;&lt;p style=&quot;margin-top: 0pt; margin-bottom: 0pt; margin-left: 0in; direction: ltr; unicode-bidi: embed; word-break: normal;&quot;&gt;&lt;span style=&quot;font-family: Aptos;&quot;&gt;ExemptionsFormBundles&lt;/span&gt;&lt;/p&gt;&lt;/font&gt;" style="rounded=0;whiteSpace=wrap;html=1;align=center;" vertex="1" parent="1">
          <mxGeometry x="-1910" y="837" width="160" height="80" as="geometry" />
        </mxCell>
        <mxCell id="wGV_q_7Ccg4vwoB7AuN0-34" style="edgeStyle=orthogonalEdgeStyle;rounded=0;orthogonalLoop=1;jettySize=auto;html=1;exitX=0.5;exitY=0;exitDx=0;exitDy=0;entryX=0.5;entryY=1;entryDx=0;entryDy=0;" edge="1" parent="1" source="wGV_q_7Ccg4vwoB7AuN0-15" target="wGV_q_7Ccg4vwoB7AuN0-2">
          <mxGeometry relative="1" as="geometry" />
        </mxCell>
        <mxCell id="wGV_q_7Ccg4vwoB7AuN0-15" value="&lt;font style=&quot;font-size: 14px;&quot;&gt;&lt;p style=&quot;margin-top: 0pt; margin-bottom: 0pt; margin-left: 0in; direction: ltr; unicode-bidi: embed; word-break: normal;&quot;&gt;&lt;span style=&quot;font-family: Aptos;&quot;&gt;LandTax&lt;/span&gt;&lt;span style=&quot;font-family: Aptos;&quot;&gt;::&lt;/span&gt;&lt;span style=&quot;font-family: Aptos;&quot;&gt;CV_Parcel&lt;/span&gt;&lt;/p&gt;&lt;/font&gt;" style="rounded=0;whiteSpace=wrap;html=1;align=center;" vertex="1" parent="1">
          <mxGeometry x="-1430" y="833" width="160" height="80" as="geometry" />
        </mxCell>
        <mxCell id="wGV_q_7Ccg4vwoB7AuN0-23" style="edgeStyle=orthogonalEdgeStyle;rounded=0;orthogonalLoop=1;jettySize=auto;html=1;exitX=0.5;exitY=0;exitDx=0;exitDy=0;entryX=0.5;entryY=1;entryDx=0;entryDy=0;" edge="1" parent="1" source="wGV_q_7Ccg4vwoB7AuN0-17" target="wGV_q_7Ccg4vwoB7AuN0-3">
          <mxGeometry relative="1" as="geometry">
            <Array as="points">
              <mxPoint x="-1054" y="600" />
              <mxPoint x="-673" y="600" />
            </Array>
          </mxGeometry>
        </mxCell>
        <mxCell id="wGV_q_7Ccg4vwoB7AuN0-17" value="&lt;font style=&quot;font-size: 14px;&quot;&gt;&lt;p style=&quot;margin-top: 0pt; margin-bottom: 0pt; margin-left: 0in; direction: ltr; unicode-bidi: embed; word-break: normal;&quot;&gt;&lt;span style=&quot;font-family: Aptos;&quot;&gt;LandTax&lt;/span&gt;&lt;span style=&quot;font-family: Aptos;&quot;&gt;::&lt;/span&gt;&lt;/p&gt;&lt;p style=&quot;margin-top: 0pt; margin-bottom: 0pt; margin-left: 0in; direction: ltr; unicode-bidi: embed; word-break: normal;&quot;&gt;&lt;span style=&quot;font-family: Aptos;&quot;&gt;CV_ParcelResultsBp&lt;/span&gt;&lt;/p&gt;&lt;/font&gt;" style="rounded=0;whiteSpace=wrap;html=1;align=center;" vertex="1" parent="1">
          <mxGeometry x="-1134" y="837" width="160" height="80" as="geometry" />
        </mxCell>
        <mxCell id="wGV_q_7Ccg4vwoB7AuN0-25" style="edgeStyle=orthogonalEdgeStyle;rounded=0;orthogonalLoop=1;jettySize=auto;html=1;exitX=0.5;exitY=0;exitDx=0;exitDy=0;" edge="1" parent="1" source="wGV_q_7Ccg4vwoB7AuN0-18">
          <mxGeometry relative="1" as="geometry">
            <mxPoint x="-672" y="480" as="targetPoint" />
            <Array as="points">
              <mxPoint x="-864" y="600" />
              <mxPoint x="-671" y="600" />
              <mxPoint x="-671" y="480" />
            </Array>
          </mxGeometry>
        </mxCell>
        <mxCell id="wGV_q_7Ccg4vwoB7AuN0-18" value="&lt;font style=&quot;font-size: 14px;&quot;&gt;&lt;p style=&quot;margin-top: 0pt; margin-bottom: 0pt; margin-left: 0in; direction: ltr; unicode-bidi: embed; word-break: normal;&quot;&gt;&lt;span style=&quot;font-family: Aptos;&quot;&gt;LandTax&lt;/span&gt;&lt;span style=&quot;font-family: Aptos;&quot;&gt;::&lt;/span&gt;&lt;/p&gt;&lt;p style=&quot;margin-top: 0pt; margin-bottom: 0pt; margin-left: 0in; direction: ltr; unicode-bidi: embed; word-break: normal;&quot;&gt;&lt;span style=&quot;font-family: Aptos;&quot;&gt;CV_&lt;/span&gt;&lt;span style=&quot;font-family: Aptos; background-color: initial;&quot;&gt;BpOwnerType&lt;/span&gt;&lt;/p&gt;&lt;/font&gt;" style="rounded=0;whiteSpace=wrap;html=1;align=center;" vertex="1" parent="1">
          <mxGeometry x="-944" y="837" width="160" height="80" as="geometry" />
        </mxCell>
        <mxCell id="wGV_q_7Ccg4vwoB7AuN0-26" style="edgeStyle=orthogonalEdgeStyle;rounded=0;orthogonalLoop=1;jettySize=auto;html=1;exitX=0.5;exitY=0;exitDx=0;exitDy=0;" edge="1" parent="1" source="wGV_q_7Ccg4vwoB7AuN0-19">
          <mxGeometry relative="1" as="geometry">
            <mxPoint x="-674.8571428571427" y="480" as="targetPoint" />
          </mxGeometry>
        </mxCell>
        <mxCell id="wGV_q_7Ccg4vwoB7AuN0-19" value="&lt;font style=&quot;font-size: 14px;&quot;&gt;&lt;p style=&quot;margin-top: 0pt; margin-bottom: 0pt; margin-left: 0in; direction: ltr; unicode-bidi: embed; word-break: normal;&quot;&gt;&lt;span style=&quot;font-size: 10pt; font-family: Aptos;&quot;&gt;CommonObject&lt;/span&gt;&lt;span style=&quot;font-size: 10pt; font-family: Aptos;&quot;&gt;::&lt;/span&gt;&lt;/p&gt;&lt;p style=&quot;margin-top: 0pt; margin-bottom: 0pt; margin-left: 0in; direction: ltr; unicode-bidi: embed; word-break: normal;&quot;&gt;&lt;span style=&quot;font-size: 10pt; font-family: Aptos;&quot;&gt;C&lt;/span&gt;&lt;span style=&quot;font-size: 10pt; font-family: Aptos;&quot;&gt;VDS_CO_BP_TEXT&lt;/span&gt;&lt;/p&gt;&lt;/font&gt;" style="rounded=0;whiteSpace=wrap;html=1;align=center;" vertex="1" parent="1">
          <mxGeometry x="-755" y="838" width="160" height="80" as="geometry" />
        </mxCell>
        <mxCell id="wGV_q_7Ccg4vwoB7AuN0-27" style="edgeStyle=orthogonalEdgeStyle;rounded=0;orthogonalLoop=1;jettySize=auto;html=1;exitX=0.5;exitY=0;exitDx=0;exitDy=0;" edge="1" parent="1" source="wGV_q_7Ccg4vwoB7AuN0-20">
          <mxGeometry relative="1" as="geometry">
            <mxPoint x="-672" y="480" as="targetPoint" />
            <Array as="points">
              <mxPoint x="-480" y="600" />
              <mxPoint x="-671" y="600" />
              <mxPoint x="-671" y="480" />
            </Array>
          </mxGeometry>
        </mxCell>
        <mxCell id="wGV_q_7Ccg4vwoB7AuN0-20" value="&lt;font style=&quot;font-size: 14px;&quot;&gt;&lt;p style=&quot;margin-top: 0pt; margin-bottom: 0pt; margin-left: 0in; direction: ltr; unicode-bidi: embed; word-break: normal;&quot;&gt;&lt;span style=&quot;font-family: Aptos;&quot;&gt;CommonObject&lt;/span&gt;&lt;span style=&quot;font-family: Aptos;&quot;&gt;::&lt;/span&gt;&lt;/p&gt;&lt;p style=&quot;margin-top: 0pt; margin-bottom: 0pt; margin-left: 0in; direction: ltr; unicode-bidi: embed; word-break: normal;&quot;&gt;&lt;span style=&quot;font-family: Aptos;&quot;&gt;C&lt;/span&gt;&lt;span style=&quot;font-family: Aptos;&quot;&gt;VDS_CO_LtExemptionCode&lt;/span&gt;&lt;/p&gt;&lt;/font&gt;" style="rounded=0;whiteSpace=wrap;html=1;align=center;" vertex="1" parent="1">
          <mxGeometry x="-560" y="838" width="160" height="80" as="geometry" />
        </mxCell>
        <mxCell id="wGV_q_7Ccg4vwoB7AuN0-40" style="edgeStyle=orthogonalEdgeStyle;rounded=0;orthogonalLoop=1;jettySize=auto;html=1;" edge="1" parent="1" source="wGV_q_7Ccg4vwoB7AuN0-21">
          <mxGeometry relative="1" as="geometry">
            <mxPoint x="-670.0000000000005" y="480" as="targetPoint" />
            <Array as="points">
              <mxPoint x="-290" y="600" />
              <mxPoint x="-669" y="600" />
              <mxPoint x="-669" y="480" />
            </Array>
          </mxGeometry>
        </mxCell>
        <mxCell id="wGV_q_7Ccg4vwoB7AuN0-21" value="&lt;font style=&quot;font-size: 14px;&quot;&gt;&lt;p style=&quot;margin-top: 0pt; margin-bottom: 0pt; margin-left: 0in; direction: ltr; unicode-bidi: embed; word-break: normal;&quot;&gt;&lt;span style=&quot;font-size: 10pt; font-family: Aptos;&quot;&gt;Synonyms::&lt;/span&gt;&lt;/p&gt;&lt;p style=&quot;margin-top: 0pt; margin-bottom: 0pt; margin-left: 0in; direction: ltr; unicode-bidi: embed; word-break: normal;&quot;&gt;&lt;span style=&quot;font-size: 10pt; font-family: Aptos;&quot;&gt;LTCNRESP&lt;/span&gt;&lt;/p&gt;&lt;/font&gt;" style="rounded=0;whiteSpace=wrap;html=1;align=center;" vertex="1" parent="1">
          <mxGeometry x="-370" y="1412" width="160" height="80" as="geometry" />
        </mxCell>
        <mxCell id="wGV_q_7Ccg4vwoB7AuN0-39" style="edgeStyle=orthogonalEdgeStyle;rounded=0;orthogonalLoop=1;jettySize=auto;html=1;" edge="1" parent="1" source="wGV_q_7Ccg4vwoB7AuN0-22">
          <mxGeometry relative="1" as="geometry">
            <mxPoint x="-680.0000000000005" y="480" as="targetPoint" />
            <Array as="points">
              <mxPoint x="-96" y="600" />
              <mxPoint x="-670" y="600" />
              <mxPoint x="-670" y="480" />
            </Array>
          </mxGeometry>
        </mxCell>
        <mxCell id="wGV_q_7Ccg4vwoB7AuN0-76" style="edgeStyle=orthogonalEdgeStyle;rounded=0;orthogonalLoop=1;jettySize=auto;html=1;exitX=0.5;exitY=0;exitDx=0;exitDy=0;entryX=0.5;entryY=1;entryDx=0;entryDy=0;" edge="1" parent="1" source="wGV_q_7Ccg4vwoB7AuN0-22" target="wGV_q_7Ccg4vwoB7AuN0-6">
          <mxGeometry relative="1" as="geometry">
            <Array as="points">
              <mxPoint x="-96" y="1030" />
              <mxPoint x="3372" y="1030" />
            </Array>
          </mxGeometry>
        </mxCell>
        <mxCell id="wGV_q_7Ccg4vwoB7AuN0-22" value="&lt;font style=&quot;font-size: 14px;&quot;&gt;&lt;p style=&quot;margin-top: 0pt; margin-bottom: 0pt; margin-left: 0in; direction: ltr; unicode-bidi: embed; word-break: normal;&quot;&gt;&lt;span style=&quot;font-family: Aptos;&quot;&gt;Synonyms::&lt;/span&gt;&lt;/p&gt;&lt;p style=&quot;margin-top: 0pt; margin-bottom: 0pt; margin-left: 0in; direction: ltr; unicode-bidi: embed; word-break: normal;&quot;&gt;&lt;span style=&quot;font-family: Aptos; background-color: initial;&quot;&gt;VICNCN&lt;/span&gt;&lt;/p&gt;&lt;/font&gt;" style="rounded=0;whiteSpace=wrap;html=1;align=center;" vertex="1" parent="1">
          <mxGeometry x="-176" y="1412" width="160" height="80" as="geometry" />
        </mxCell>
        <mxCell id="wGV_q_7Ccg4vwoB7AuN0-41" style="edgeStyle=orthogonalEdgeStyle;rounded=0;orthogonalLoop=1;jettySize=auto;html=1;entryX=0.5;entryY=1;entryDx=0;entryDy=0;" edge="1" parent="1" source="wGV_q_7Ccg4vwoB7AuN0-35" target="wGV_q_7Ccg4vwoB7AuN0-4">
          <mxGeometry relative="1" as="geometry">
            <Array as="points">
              <mxPoint x="114" y="600" />
              <mxPoint x="411" y="600" />
            </Array>
          </mxGeometry>
        </mxCell>
        <mxCell id="wGV_q_7Ccg4vwoB7AuN0-35" value="&lt;font style=&quot;font-size: 14px;&quot;&gt;&lt;p style=&quot;margin-top: 0pt; margin-bottom: 0pt; margin-left: 0in; direction: ltr; unicode-bidi: embed; word-break: normal;&quot;&gt;&lt;span style=&quot;font-size: 10pt; font-family: Aptos;&quot;&gt;LandTax&lt;/span&gt;&lt;span style=&quot;font-size: 10pt; font-family: Aptos;&quot;&gt;::&lt;/span&gt;&lt;/p&gt;&lt;p style=&quot;margin-top: 0pt; margin-bottom: 0pt; margin-left: 0in; direction: ltr; unicode-bidi: embed; word-break: normal;&quot;&gt;&lt;span style=&quot;font-size: 10pt; font-family: Aptos;&quot;&gt;CV_Cashflow&lt;/span&gt;&lt;/p&gt;&lt;/font&gt;" style="rounded=0;whiteSpace=wrap;html=1;align=center;" vertex="1" parent="1">
          <mxGeometry x="34" y="838" width="160" height="80" as="geometry" />
        </mxCell>
        <mxCell id="wGV_q_7Ccg4vwoB7AuN0-42" style="edgeStyle=orthogonalEdgeStyle;rounded=0;orthogonalLoop=1;jettySize=auto;html=1;entryX=0.5;entryY=1;entryDx=0;entryDy=0;" edge="1" parent="1" source="wGV_q_7Ccg4vwoB7AuN0-36" target="wGV_q_7Ccg4vwoB7AuN0-4">
          <mxGeometry relative="1" as="geometry">
            <Array as="points">
              <mxPoint x="340" y="600" />
              <mxPoint x="411" y="600" />
            </Array>
          </mxGeometry>
        </mxCell>
        <mxCell id="wGV_q_7Ccg4vwoB7AuN0-36" value="&lt;font style=&quot;font-size: 14px;&quot;&gt;&lt;p style=&quot;margin-top: 0pt; margin-bottom: 0pt; margin-left: 0in; direction: ltr; unicode-bidi: embed; word-break: normal;&quot;&gt;&lt;span style=&quot;font-family: Aptos;&quot;&gt;CommonObject&lt;/span&gt;&lt;span style=&quot;font-family: Aptos;&quot;&gt;::&lt;/span&gt;&lt;/p&gt;&lt;p style=&quot;margin-top: 0pt; margin-bottom: 0pt; margin-left: 0in; direction: ltr; unicode-bidi: embed; word-break: normal;&quot;&gt;&lt;span style=&quot;font-family: Aptos;&quot;&gt;C&lt;/span&gt;&lt;span style=&quot;font-family: Aptos;&quot;&gt;VDS_CO_LtExemptionCode&lt;/span&gt;&lt;/p&gt;&lt;/font&gt;" style="rounded=0;whiteSpace=wrap;html=1;align=center;" vertex="1" parent="1">
          <mxGeometry x="260" y="838" width="160" height="80" as="geometry" />
        </mxCell>
        <mxCell id="wGV_q_7Ccg4vwoB7AuN0-44" style="edgeStyle=orthogonalEdgeStyle;rounded=0;orthogonalLoop=1;jettySize=auto;html=1;exitX=0.5;exitY=0;exitDx=0;exitDy=0;" edge="1" parent="1" source="wGV_q_7Ccg4vwoB7AuN0-37">
          <mxGeometry relative="1" as="geometry">
            <mxPoint x="410" y="480" as="targetPoint" />
            <Array as="points">
              <mxPoint x="530" y="600" />
              <mxPoint x="411" y="600" />
              <mxPoint x="411" y="480" />
            </Array>
          </mxGeometry>
        </mxCell>
        <mxCell id="wGV_q_7Ccg4vwoB7AuN0-37" value="&lt;font style=&quot;font-size: 14px;&quot;&gt;&lt;p style=&quot;margin-top: 0pt; margin-bottom: 0pt; margin-left: 0in; direction: ltr; unicode-bidi: embed; word-break: normal;&quot;&gt;&lt;span style=&quot;font-family: Aptos;&quot;&gt;CommonObject&lt;/span&gt;&lt;span style=&quot;font-family: Aptos;&quot;&gt;::&lt;/span&gt;&lt;/p&gt;&lt;p style=&quot;margin-top: 0pt; margin-bottom: 0pt; margin-left: 0in; direction: ltr; unicode-bidi: embed; word-break: normal;&quot;&gt;&lt;span style=&quot;font-family: Aptos;&quot;&gt;C&lt;/span&gt;&lt;span style=&quot;font-family: Aptos;&quot;&gt;VDS_CO_LtExemptionCode&lt;/span&gt;&lt;/p&gt;&lt;/font&gt;" style="rounded=0;whiteSpace=wrap;html=1;align=center;" vertex="1" parent="1">
          <mxGeometry x="450" y="837" width="160" height="80" as="geometry" />
        </mxCell>
        <mxCell id="wGV_q_7Ccg4vwoB7AuN0-45" style="edgeStyle=orthogonalEdgeStyle;rounded=0;orthogonalLoop=1;jettySize=auto;html=1;exitX=0.5;exitY=0;exitDx=0;exitDy=0;" edge="1" parent="1" source="wGV_q_7Ccg4vwoB7AuN0-38">
          <mxGeometry relative="1" as="geometry">
            <mxPoint x="410" y="480" as="targetPoint" />
            <Array as="points">
              <mxPoint x="747" y="600" />
              <mxPoint x="411" y="600" />
              <mxPoint x="411" y="480" />
            </Array>
          </mxGeometry>
        </mxCell>
        <mxCell id="wGV_q_7Ccg4vwoB7AuN0-74" style="edgeStyle=orthogonalEdgeStyle;rounded=0;orthogonalLoop=1;jettySize=auto;html=1;exitX=0.5;exitY=0;exitDx=0;exitDy=0;entryX=0.5;entryY=1;entryDx=0;entryDy=0;" edge="1" parent="1" source="wGV_q_7Ccg4vwoB7AuN0-38" target="wGV_q_7Ccg4vwoB7AuN0-6">
          <mxGeometry relative="1" as="geometry">
            <Array as="points">
              <mxPoint x="747" y="1030" />
              <mxPoint x="3372" y="1030" />
            </Array>
          </mxGeometry>
        </mxCell>
        <mxCell id="wGV_q_7Ccg4vwoB7AuN0-38" value="&lt;font style=&quot;font-size: 14px;&quot;&gt;&lt;p style=&quot;margin-top: 0pt; margin-bottom: 0pt; margin-left: 0in; direction: ltr; unicode-bidi: embed; word-break: normal;&quot;&gt;&lt;span style=&quot;font-family: Aptos;&quot;&gt;Synonyms::&lt;/span&gt;&lt;/p&gt;&lt;p style=&quot;margin-top: 0pt; margin-bottom: 0pt; margin-left: 0in; direction: ltr; unicode-bidi: embed; word-break: normal;&quot;&gt;&lt;span style=&quot;font-family: Aptos;&quot;&gt;LTAXASFB&lt;/span&gt;&lt;/p&gt;&lt;/font&gt;" style="rounded=0;whiteSpace=wrap;html=1;align=center;" vertex="1" parent="1">
          <mxGeometry x="667" y="1394" width="160" height="80" as="geometry" />
        </mxCell>
        <mxCell id="wGV_q_7Ccg4vwoB7AuN0-59" style="edgeStyle=orthogonalEdgeStyle;rounded=0;orthogonalLoop=1;jettySize=auto;html=1;exitX=0.5;exitY=0;exitDx=0;exitDy=0;entryX=0.5;entryY=1;entryDx=0;entryDy=0;" edge="1" parent="1" source="wGV_q_7Ccg4vwoB7AuN0-46" target="wGV_q_7Ccg4vwoB7AuN0-5">
          <mxGeometry relative="1" as="geometry" />
        </mxCell>
        <mxCell id="wGV_q_7Ccg4vwoB7AuN0-46" value="&lt;font style=&quot;font-size: 14px;&quot;&gt;&lt;p style=&quot;margin-top: 0pt; margin-bottom: 0pt; margin-left: 0in; direction: ltr; unicode-bidi: embed; word-break: normal;&quot;&gt;&lt;span style=&quot;font-size: 10pt; font-family: Aptos;&quot;&gt;CommonObject&lt;/span&gt;&lt;span style=&quot;font-size: 10pt; font-family: Aptos;&quot;&gt;s&lt;/span&gt;&lt;span style=&quot;font-size: 10pt; font-family: Aptos;&quot;&gt;::&lt;/span&gt;&lt;/p&gt;&lt;p style=&quot;margin-top: 0pt; margin-bottom: 0pt; margin-left: 0in; direction: ltr; unicode-bidi: embed; word-break: normal;&quot;&gt;&lt;span style=&quot;font-size: 10pt; font-family: Aptos;&quot;&gt;CVCS_CO_&lt;/span&gt;&lt;/p&gt;&lt;p style=&quot;margin-top: 0pt; margin-bottom: 0pt; margin-left: 0in; direction: ltr; unicode-bidi: embed; word-break: normal;&quot;&gt;&lt;span style=&quot;font-size: 10pt; font-family: Aptos;&quot;&gt;BpldRolesExcludingRoyaltie&lt;/span&gt;&lt;span style=&quot;font-size: 10pt; font-family: Aptos;&quot;&gt;s&lt;/span&gt;&lt;/p&gt;&lt;/font&gt;" style="rounded=0;whiteSpace=wrap;html=1;align=center;" vertex="1" parent="1">
          <mxGeometry x="880" y="838" width="160" height="80" as="geometry" />
        </mxCell>
        <mxCell id="wGV_q_7Ccg4vwoB7AuN0-60" style="edgeStyle=orthogonalEdgeStyle;rounded=0;orthogonalLoop=1;jettySize=auto;html=1;exitX=0.5;exitY=0;exitDx=0;exitDy=0;" edge="1" parent="1" source="wGV_q_7Ccg4vwoB7AuN0-47">
          <mxGeometry relative="1" as="geometry">
            <mxPoint x="1640" y="480" as="targetPoint" />
          </mxGeometry>
        </mxCell>
        <mxCell id="wGV_q_7Ccg4vwoB7AuN0-47" value="&lt;font style=&quot;font-size: 14px;&quot;&gt;&lt;p style=&quot;margin-top: 0pt; margin-bottom: 0pt; margin-left: 0in; direction: ltr; unicode-bidi: embed; word-break: normal;&quot;&gt;&lt;span style=&quot;font-size: 10pt; font-family: Aptos;&quot;&gt;CommonObjects&lt;/span&gt;&lt;span style=&quot;font-size: 10pt; font-family: Aptos;&quot;&gt;::&lt;/span&gt;&lt;span style=&quot;font-size: 10pt; font-family: Aptos;&quot;&gt;CVC_CO_&lt;/span&gt;&lt;/p&gt;&lt;p style=&quot;margin-top: 0pt; margin-bottom: 0pt; margin-left: 0in; direction: ltr; unicode-bidi: embed; word-break: normal;&quot;&gt;&lt;span style=&quot;font-size: 10pt; font-family: Aptos;&quot;&gt;BpAddresses&lt;/span&gt;&lt;/p&gt;&lt;/font&gt;" style="rounded=0;whiteSpace=wrap;html=1;align=center;" vertex="1" parent="1">
          <mxGeometry x="1120" y="837" width="160" height="80" as="geometry" />
        </mxCell>
        <mxCell id="wGV_q_7Ccg4vwoB7AuN0-61" style="edgeStyle=orthogonalEdgeStyle;rounded=0;orthogonalLoop=1;jettySize=auto;html=1;exitX=0.5;exitY=0;exitDx=0;exitDy=0;entryX=0.5;entryY=1;entryDx=0;entryDy=0;" edge="1" parent="1" source="wGV_q_7Ccg4vwoB7AuN0-48" target="wGV_q_7Ccg4vwoB7AuN0-5">
          <mxGeometry relative="1" as="geometry" />
        </mxCell>
        <mxCell id="wGV_q_7Ccg4vwoB7AuN0-48" value="&lt;font style=&quot;font-size: 14px;&quot;&gt;&lt;p style=&quot;margin-top: 0pt; margin-bottom: 0pt; margin-left: 0in; direction: ltr; unicode-bidi: embed; word-break: normal;&quot;&gt;&lt;span style=&quot;font-size: 10pt; font-family: Aptos;&quot;&gt;CommonObject&lt;/span&gt;&lt;span style=&quot;font-size: 10pt; font-family: Aptos;&quot;&gt;::&lt;/span&gt;&lt;/p&gt;&lt;p style=&quot;margin-top: 0pt; margin-bottom: 0pt; margin-left: 0in; direction: ltr; unicode-bidi: embed; word-break: normal;&quot;&gt;&lt;span style=&quot;font-size: 10pt; font-family: Aptos;&quot;&gt;CVDS_CO_ADR2&lt;/span&gt;&lt;/p&gt;&lt;/font&gt;" style="rounded=0;whiteSpace=wrap;html=1;align=center;" vertex="1" parent="1">
          <mxGeometry x="1330" y="838" width="160" height="80" as="geometry" />
        </mxCell>
        <mxCell id="wGV_q_7Ccg4vwoB7AuN0-62" style="edgeStyle=orthogonalEdgeStyle;rounded=0;orthogonalLoop=1;jettySize=auto;html=1;exitX=0.5;exitY=0;exitDx=0;exitDy=0;" edge="1" parent="1" source="wGV_q_7Ccg4vwoB7AuN0-50">
          <mxGeometry relative="1" as="geometry">
            <mxPoint x="1640" y="480" as="targetPoint" />
          </mxGeometry>
        </mxCell>
        <mxCell id="wGV_q_7Ccg4vwoB7AuN0-50" value="&lt;font style=&quot;font-size: 14px;&quot;&gt;&lt;p style=&quot;margin-top: 0pt; margin-bottom: 0pt; margin-left: 0in; direction: ltr; unicode-bidi: embed; word-break: normal;&quot;&gt;&lt;span style=&quot;font-size: 10pt; font-family: Aptos;&quot;&gt;LandTax&lt;/span&gt;&lt;span style=&quot;font-size: 10pt; font-family: Aptos;&quot;&gt;::&lt;/span&gt;&lt;span style=&quot;font-size: 10pt; font-family: Aptos;&quot;&gt;CV_BpContract&lt;/span&gt;&lt;/p&gt;&lt;/font&gt;" style="rounded=0;whiteSpace=wrap;html=1;align=center;" vertex="1" parent="1">
          <mxGeometry x="1530" y="841" width="160" height="80" as="geometry" />
        </mxCell>
        <mxCell id="wGV_q_7Ccg4vwoB7AuN0-63" style="edgeStyle=orthogonalEdgeStyle;rounded=0;orthogonalLoop=1;jettySize=auto;html=1;exitX=0.5;exitY=0;exitDx=0;exitDy=0;" edge="1" parent="1" source="wGV_q_7Ccg4vwoB7AuN0-51">
          <mxGeometry relative="1" as="geometry">
            <mxPoint x="1640" y="480" as="targetPoint" />
          </mxGeometry>
        </mxCell>
        <mxCell id="wGV_q_7Ccg4vwoB7AuN0-51" value="&lt;font style=&quot;font-size: 14px;&quot;&gt;&lt;p style=&quot;margin-top: 0pt; margin-bottom: 0pt; margin-left: 0in; direction: ltr; unicode-bidi: embed; word-break: normal;&quot;&gt;&lt;span style=&quot;font-size: 10pt; font-family: Aptos;&quot;&gt;LandTax&lt;/span&gt;&lt;span style=&quot;font-size: 10pt; font-family: Aptos;&quot;&gt;::&lt;/span&gt;&lt;/p&gt;&lt;p style=&quot;margin-top: 0pt; margin-bottom: 0pt; margin-left: 0in; direction: ltr; unicode-bidi: embed; word-break: normal;&quot;&gt;&lt;span style=&quot;font-size: 10pt; font-family: Aptos;&quot;&gt;CV_ContractValuesLoca&lt;/span&gt;&lt;span style=&quot;font-size: 10pt; font-family: Aptos;&quot;&gt;l&lt;/span&gt;&lt;/p&gt;&lt;/font&gt;" style="rounded=0;whiteSpace=wrap;html=1;align=center;" vertex="1" parent="1">
          <mxGeometry x="1770" y="840" width="160" height="80" as="geometry" />
        </mxCell>
        <mxCell id="wGV_q_7Ccg4vwoB7AuN0-64" style="edgeStyle=orthogonalEdgeStyle;rounded=0;orthogonalLoop=1;jettySize=auto;html=1;exitX=0.5;exitY=0;exitDx=0;exitDy=0;" edge="1" parent="1" source="wGV_q_7Ccg4vwoB7AuN0-52">
          <mxGeometry relative="1" as="geometry">
            <mxPoint x="1640" y="480" as="targetPoint" />
          </mxGeometry>
        </mxCell>
        <mxCell id="wGV_q_7Ccg4vwoB7AuN0-52" value="&lt;font style=&quot;font-size: 14px;&quot;&gt;&lt;p style=&quot;margin-top: 0pt; margin-bottom: 0pt; margin-left: 0in; direction: ltr; unicode-bidi: embed; word-break: normal;&quot;&gt;&lt;span style=&quot;font-size: 10pt; font-family: Aptos;&quot;&gt;LandTax&lt;/span&gt;&lt;span style=&quot;font-size: 10pt; font-family: Aptos;&quot;&gt;::&lt;/span&gt;&lt;span style=&quot;font-size: 10pt; font-family: Aptos;&quot;&gt;CV_&lt;/span&gt;&lt;/p&gt;&lt;p style=&quot;margin-top: 0pt; margin-bottom: 0pt; margin-left: 0in; direction: ltr; unicode-bidi: embed; word-break: normal;&quot;&gt;&lt;span style=&quot;font-size: 10pt; font-family: Aptos;&quot;&gt;HomeEcemptionReengagement&lt;/span&gt;&lt;/p&gt;&lt;/font&gt;" style="rounded=0;whiteSpace=wrap;html=1;align=center;" vertex="1" parent="1">
          <mxGeometry x="1980" y="841" width="160" height="80" as="geometry" />
        </mxCell>
        <mxCell id="wGV_q_7Ccg4vwoB7AuN0-68" style="edgeStyle=orthogonalEdgeStyle;rounded=0;orthogonalLoop=1;jettySize=auto;html=1;" edge="1" parent="1" source="wGV_q_7Ccg4vwoB7AuN0-53">
          <mxGeometry relative="1" as="geometry">
            <mxPoint x="1640" y="470" as="targetPoint" />
            <Array as="points">
              <mxPoint x="2300" y="660" />
              <mxPoint x="1640" y="660" />
            </Array>
          </mxGeometry>
        </mxCell>
        <mxCell id="wGV_q_7Ccg4vwoB7AuN0-53" value="&lt;font style=&quot;font-size: 14px;&quot;&gt;&lt;p style=&quot;margin-top: 0pt; margin-bottom: 0pt; margin-left: 0in; direction: ltr; unicode-bidi: embed; word-break: normal;&quot;&gt;&lt;span style=&quot;font-size: 10pt; font-family: Aptos;&quot;&gt;Synonyms::&lt;/span&gt;&lt;/p&gt;&lt;p style=&quot;margin-top: 0pt; margin-bottom: 0pt; margin-left: 0in; direction: ltr; unicode-bidi: embed; word-break: normal;&quot;&gt;&lt;span style=&quot;font-size: 10pt; font-family: Aptos;&quot;&gt;SCVFoundation.Organisation&lt;/span&gt;&lt;/p&gt;&lt;/font&gt;" style="rounded=0;whiteSpace=wrap;html=1;align=center;" vertex="1" parent="1">
          <mxGeometry x="2220" y="1582" width="160" height="80" as="geometry" />
        </mxCell>
        <mxCell id="wGV_q_7Ccg4vwoB7AuN0-69" style="edgeStyle=orthogonalEdgeStyle;rounded=0;orthogonalLoop=1;jettySize=auto;html=1;exitX=0.5;exitY=0;exitDx=0;exitDy=0;" edge="1" parent="1" source="wGV_q_7Ccg4vwoB7AuN0-54">
          <mxGeometry relative="1" as="geometry">
            <mxPoint x="1640" y="470" as="targetPoint" />
            <Array as="points">
              <mxPoint x="2540" y="660" />
              <mxPoint x="1640" y="660" />
            </Array>
          </mxGeometry>
        </mxCell>
        <mxCell id="wGV_q_7Ccg4vwoB7AuN0-54" value="&lt;font style=&quot;font-size: 14px;&quot;&gt;&lt;p style=&quot;margin-top: 0pt; margin-bottom: 0pt; margin-left: 0in; direction: ltr; unicode-bidi: embed; word-break: normal;&quot;&gt;&lt;span style=&quot;font-size: 10pt; font-family: Aptos;&quot;&gt;Synonyms::ADR6&lt;/span&gt;&lt;/p&gt;&lt;/font&gt;" style="rounded=0;whiteSpace=wrap;html=1;align=center;" vertex="1" parent="1">
          <mxGeometry x="2460" y="1581" width="160" height="80" as="geometry" />
        </mxCell>
        <mxCell id="wGV_q_7Ccg4vwoB7AuN0-70" style="edgeStyle=orthogonalEdgeStyle;rounded=0;orthogonalLoop=1;jettySize=auto;html=1;exitX=0.5;exitY=0;exitDx=0;exitDy=0;" edge="1" parent="1" source="wGV_q_7Ccg4vwoB7AuN0-55">
          <mxGeometry relative="1" as="geometry">
            <mxPoint x="1640" y="480" as="targetPoint" />
            <Array as="points">
              <mxPoint x="2750" y="660" />
              <mxPoint x="1640" y="660" />
            </Array>
          </mxGeometry>
        </mxCell>
        <mxCell id="wGV_q_7Ccg4vwoB7AuN0-55" value="&lt;font style=&quot;font-size: 14px;&quot;&gt;&lt;p style=&quot;margin-top: 0pt; margin-bottom: 0pt; margin-left: 0in; direction: ltr; unicode-bidi: embed; word-break: normal;&quot;&gt;&lt;span style=&quot;font-size: 10pt; font-family: Aptos;&quot;&gt;Synonyms::&lt;/span&gt;&lt;/p&gt;&lt;p style=&quot;margin-top: 0pt; margin-bottom: 0pt; margin-left: 0in; direction: ltr; unicode-bidi: embed; word-break: normal;&quot;&gt;&lt;span style=&quot;font-size: 10pt; font-family: Aptos;&quot;&gt;ZBUT0000UZQMZ7&lt;/span&gt;&lt;/p&gt;&lt;/font&gt;" style="rounded=0;whiteSpace=wrap;html=1;align=center;" vertex="1" parent="1">
          <mxGeometry x="2670" y="1582" width="160" height="80" as="geometry" />
        </mxCell>
        <mxCell id="wGV_q_7Ccg4vwoB7AuN0-65" style="edgeStyle=orthogonalEdgeStyle;rounded=0;orthogonalLoop=1;jettySize=auto;html=1;exitX=0.5;exitY=0;exitDx=0;exitDy=0;" edge="1" parent="1" source="wGV_q_7Ccg4vwoB7AuN0-56">
          <mxGeometry relative="1" as="geometry">
            <mxPoint x="1640" y="480" as="targetPoint" />
            <Array as="points">
              <mxPoint x="2300" y="660" />
              <mxPoint x="1640" y="660" />
            </Array>
          </mxGeometry>
        </mxCell>
        <mxCell id="wGV_q_7Ccg4vwoB7AuN0-56" value="&lt;font style=&quot;font-size: 14px;&quot;&gt;&lt;p style=&quot;margin-top: 0pt; margin-bottom: 0pt; margin-left: 0in; direction: ltr; unicode-bidi: embed; word-break: normal;&quot;&gt;&lt;span style=&quot;font-size: 10pt; font-family: Aptos;&quot;&gt;Synonyms::&lt;/span&gt;&lt;/p&gt;&lt;p style=&quot;margin-top: 0pt; margin-bottom: 0pt; margin-left: 0in; direction: ltr; unicode-bidi: embed; word-break: normal;&quot;&gt;&lt;span style=&quot;font-size: 10pt; font-family: Aptos;&quot;&gt;SCVFoundation.PersonRms&lt;/span&gt;&lt;/p&gt;&lt;/font&gt;" style="rounded=0;whiteSpace=wrap;html=1;align=center;" vertex="1" parent="1">
          <mxGeometry x="2220" y="1395" width="160" height="80" as="geometry" />
        </mxCell>
        <mxCell id="wGV_q_7Ccg4vwoB7AuN0-66" style="edgeStyle=orthogonalEdgeStyle;rounded=0;orthogonalLoop=1;jettySize=auto;html=1;entryX=0.5;entryY=1;entryDx=0;entryDy=0;" edge="1" parent="1" source="wGV_q_7Ccg4vwoB7AuN0-57" target="wGV_q_7Ccg4vwoB7AuN0-5">
          <mxGeometry relative="1" as="geometry">
            <Array as="points">
              <mxPoint x="2540" y="660" />
              <mxPoint x="1640" y="660" />
            </Array>
          </mxGeometry>
        </mxCell>
        <mxCell id="wGV_q_7Ccg4vwoB7AuN0-57" value="&lt;font style=&quot;font-size: 14px;&quot;&gt;&lt;p style=&quot;margin-top: 0pt; margin-bottom: 0pt; margin-left: 0in; direction: ltr; unicode-bidi: embed; word-break: normal;&quot;&gt;&lt;span style=&quot;font-size: 10pt; font-family: Aptos;&quot;&gt;Synonyms::&lt;/span&gt;&lt;/p&gt;&lt;p style=&quot;margin-top: 0pt; margin-bottom: 0pt; margin-left: 0in; direction: ltr; unicode-bidi: embed; word-break: normal;&quot;&gt;&lt;span style=&quot;font-size: 10pt; font-family: Aptos;&quot;&gt;CV_FD_DTP_RISK_CUSTOMER&lt;/span&gt;&lt;/p&gt;&lt;/font&gt;" style="rounded=0;whiteSpace=wrap;html=1;align=center;" vertex="1" parent="1">
          <mxGeometry x="2460" y="1394" width="160" height="80" as="geometry" />
        </mxCell>
        <mxCell id="wGV_q_7Ccg4vwoB7AuN0-67" style="edgeStyle=orthogonalEdgeStyle;rounded=0;orthogonalLoop=1;jettySize=auto;html=1;" edge="1" parent="1" source="wGV_q_7Ccg4vwoB7AuN0-58">
          <mxGeometry relative="1" as="geometry">
            <mxPoint x="1640" y="480" as="targetPoint" />
            <Array as="points">
              <mxPoint x="2750" y="660" />
              <mxPoint x="1640" y="660" />
            </Array>
          </mxGeometry>
        </mxCell>
        <mxCell id="wGV_q_7Ccg4vwoB7AuN0-58" value="&lt;font style=&quot;font-size: 14px;&quot;&gt;&lt;p style=&quot;margin-top: 0pt; margin-bottom: 0pt; margin-left: 0in; direction: ltr; unicode-bidi: embed; word-break: normal;&quot;&gt;&lt;span style=&quot;font-size: 10pt; font-family: Aptos;&quot;&gt;Synonyms::&lt;/span&gt;&lt;/p&gt;&lt;p style=&quot;margin-top: 0pt; margin-bottom: 0pt; margin-left: 0in; direction: ltr; unicode-bidi: embed; word-break: normal;&quot;&gt;&lt;span style=&quot;font-size: 10pt; font-family: Aptos;&quot;&gt;BUT05&lt;/span&gt;&lt;span style=&quot;font-size: 10pt; font-family: Aptos;&quot;&gt;0&lt;/span&gt;&lt;/p&gt;&lt;/font&gt;" style="rounded=0;whiteSpace=wrap;html=1;align=center;" vertex="1" parent="1">
          <mxGeometry x="2670" y="1395" width="160" height="80" as="geometry" />
        </mxCell>
        <mxCell id="wGV_q_7Ccg4vwoB7AuN0-77" style="edgeStyle=orthogonalEdgeStyle;rounded=0;orthogonalLoop=1;jettySize=auto;html=1;entryX=0.5;entryY=1;entryDx=0;entryDy=0;" edge="1" parent="1" source="wGV_q_7Ccg4vwoB7AuN0-71" target="wGV_q_7Ccg4vwoB7AuN0-6">
          <mxGeometry relative="1" as="geometry" />
        </mxCell>
        <mxCell id="wGV_q_7Ccg4vwoB7AuN0-71" value="&lt;font style=&quot;font-size: 14px;&quot;&gt;&lt;p style=&quot;margin-top: 0pt; margin-bottom: 0pt; margin-left: 0in; direction: ltr; unicode-bidi: embed; word-break: normal;&quot;&gt;&lt;span style=&quot;font-size: 10pt; font-family: Aptos;&quot;&gt;Synonyms::&lt;/span&gt;&lt;/p&gt;&lt;p style=&quot;margin-top: 0pt; margin-bottom: 0pt; margin-left: 0in; direction: ltr; unicode-bidi: embed; word-break: normal;&quot;&gt;&lt;span style=&quot;font-size: 10pt; font-family: Aptos;&quot;&gt;DFKKINVDOC_H&lt;/span&gt;&lt;/p&gt;&lt;/font&gt;" style="rounded=0;whiteSpace=wrap;html=1;align=center;" vertex="1" parent="1">
          <mxGeometry x="3292" y="1390" width="160" height="80" as="geometry" />
        </mxCell>
      </root>
    </mxGraphModel>
  </diagram>
</mxfile>
